<?xml version="1.0" encoding="utf-8"?>
<!-- Generator: Adobe Illustrator 21.0.1, SVG Export Plug-In . SVG Version: 6.00 Build 0)  -->
<svg version="1.1" id="Слой_1" xmlns="http://www.w3.org/2000/svg" xmlns:xlink="http://www.w3.org/1999/xlink" x="0px" y="0px"
	 viewBox="0 0 1248 233" style="enable-background:new 0 0 1248 233;" xml:space="preserve">
<style type="text/css">
	.st0{fill:#CEE6C1;stroke:#202124;stroke-width:3;}
	.st1{fill:#FFE7A5;stroke:#202124;stroke-width:3;}
	.st2{fill:#F8D8D8;stroke:#202124;stroke-width:3;}
	.st3{fill:none;stroke:#1E1E1E;stroke-width:3;stroke-miterlimit:10;}
	.st4{fill:#F8D8D8;stroke:#1E1E1E;stroke-width:3;stroke-linejoin:round;}
	.st5{clip-path:url(#SVGID_2_);}
	.st6{fill:#FFFFFF;stroke:#1E1E1E;stroke-width:3;stroke-miterlimit:10;}
	.st7{fill:#C3ECF6;stroke:#1E1E1E;stroke-width:3;stroke-miterlimit:10;}
	.st8{fill:#CCF6C5;stroke:#1E1E1E;stroke-width:3;stroke-miterlimit:10;}
	.st9{fill:#1E1E1E;}
</style>
<path class="st0" d="M81.5,189c0,22.4-17.9,40.5-40,40.5s-40-18.1-40-40.5s17.9-40.5,40-40.5S81.5,166.6,81.5,189z"/>
<circle class="st1" cx="141" cy="189" r="40.5"/>
<path class="st2" d="M280.5,189c0,22.4-17.9,40.5-40,40.5s-40-18.1-40-40.5s17.9-40.5,40-40.5S280.5,166.6,280.5,189z"/>
<path class="st3" d="M0,51.1h282"/>
<path class="st3" d="M281.4,51.1c-29.9,0-71-22.7-71.6-50.8"/>
<path class="st3" d="M281.4,51.1c-30,0-71.1,22.7-71.6,50.9"/>
<path class="st4" d="M556,18l-66.7,213H440l66.7-213H556z"/>
<path class="st4" d="M462,18l-66.7,213H346l66.7-213H462z"/>
<g>
	<defs>
		<rect id="SVGID_1_" x="620" y="15" width="628" height="216"/>
	</defs>
	<clipPath id="SVGID_2_">
		<use xlink:href="#SVGID_1_"  style="overflow:visible;"/>
	</clipPath>
	<g class="st5">
		<path class="st6" d="M1107.1,168.8H760.2c-16.8,0-30.4,13.7-30.4,30.5s13.6,30.5,30.4,30.5h346.9c16.8,0,30.4-13.7,30.4-30.5
			S1123.9,168.8,1107.1,168.8z"/>
		<path class="st7" d="M624,147.6h11c3.9,0,7.1,3.2,7.1,7.1v39.5c0,19.7,15.9,35.6,35.5,35.6h22.2c1.6,0,2.8-1.3,2.8-2.8v-40
			c0-1.6-1.3-2.8-2.8-2.8h-15.6c-3.9,0-7.1-3.2-7.1-7.1V68.9c0-3.9,3.2-7.1,7.1-7.1h15.6c1.6,0,2.8-1.3,2.8-2.8V19
			c0-1.6-1.3-2.8-2.8-2.8h-22.2c-19.6,0-35.5,16-35.5,35.6V93c0,3.9-3.2,7.1-7.1,7.1h-11c-1.6,0-2.8,1.3-2.8,2.8v41.8
			C621.1,146.3,622.4,147.6,624,147.6L624,147.6z"/>
		<path class="st8" d="M1244.1,147.6h-11c-3.9,0-7.1,3.2-7.1,7.1v39.5c0,19.7-15.9,35.6-35.5,35.6h-22.2c-1.6,0-2.8-1.3-2.8-2.8v-40
			c0-1.6,1.3-2.8,2.8-2.8h15.6c3.9,0,7.1-3.2,7.1-7.1V68.9c0-3.9-3.2-7.1-7.1-7.1h-15.6c-1.6,0-2.8-1.3-2.8-2.8V19
			c0-1.6,1.3-2.8,2.8-2.8h22.2c19.6,0,35.5,16,35.5,35.6V93c0,3.9,3.2,7.1,7.1,7.1h11c1.6,0,2.8,1.3,2.8,2.8v41.8
			C1246.9,146.3,1245.6,147.6,1244.1,147.6L1244.1,147.6z"/>
		<path class="st9" d="M785.8,66.7c-5.8-3.2-12.8-4.9-20.9-4.9h-25.7v76.3H765c8.1,0,15-1.6,20.9-4.8c5.8-3.2,10.3-7.7,13.5-13.4
			c3.1-5.8,4.7-12.4,4.7-19.9c0-7.5-1.6-14.2-4.7-19.9C796.1,74.4,791.7,69.9,785.8,66.7z M786.8,112.9c-1.9,3.7-4.7,6.6-8.4,8.6
			c-3.8,2-8.4,3-14,3h-10.7v-49h10.7c5.6,0,10.3,1,14,3c3.8,2,6.6,4.9,8.4,8.5c1.9,3.7,2.8,8,2.8,13
			C789.6,105,788.6,109.2,786.8,112.9z"/>
		<path class="st9" d="M853.4,85.8c-4-2.5-8.8-3.7-14.6-3.7c-5.4,0-10.2,1.3-14.3,4c-4.2,2.7-7.5,6.2-9.9,10.6
			c-2.4,4.4-3.6,9.2-3.6,14.4c0,5.5,1.2,10.5,3.7,14.8c2.4,4.3,5.8,7.7,10.1,10.2c4.3,2.5,9.1,3.7,14.6,3.7c6,0,11.1-1.3,15.2-3.9
			c4.1-2.6,7.4-6.1,10-10.6l-11.2-5.5c-1.3,2.2-3,4-5.3,5.5c-2.3,1.5-5.1,2.2-8.4,2.2c-2.8,0-5.4-0.7-7.7-2
			c-2.3-1.3-4.1-3.2-5.5-5.8c-0.9-1.6-1.4-3.4-1.7-5.5h40.6c0.1-0.4,0.1-0.9,0.2-1.8c0.1-0.8,0.1-1.8,0.1-2.9c0-5-1-9.6-3.1-13.8
			C860.3,91.6,857.3,88.3,853.4,85.8z M825.1,104.3c0.3-1,0.7-1.9,1.1-2.8c1.3-2.5,3-4.5,5.3-5.9c2.2-1.4,4.7-2.1,7.4-2.1
			c2.1,0,3.9,0.3,5.5,1c1.6,0.7,3,1.5,4.1,2.6c1.1,1.1,2,2.2,2.7,3.5c0.6,1.3,1,2.5,1.1,3.7L825.1,104.3L825.1,104.3z"/>
		<path class="st9" d="M896.2,119.2h-0.8l-13.7-35.4h-15.8l22.9,54.4h13.8l23.1-54.4h-15.6L896.2,119.2z"/>
		<path class="st9" d="M932.6,138.1h14.3v-30.5h30.5V94h-30.5V75.5h33.9V61.8h-48.2V138.1z"/>
		<path class="st9" d="M1027.4,85.8c-4-2.5-8.9-3.7-14.7-3.7c-5.4,0-10.2,1.3-14.3,4c-4.2,2.7-7.5,6.2-9.9,10.6
			c-2.4,4.4-3.6,9.2-3.6,14.4c0,5.5,1.2,10.5,3.7,14.8c2.4,4.3,5.8,7.7,10.1,10.2c4.3,2.5,9.1,3.7,14.6,3.7c6,0,11.1-1.3,15.2-3.9
			c4.1-2.6,7.4-6.1,10-10.6l-11.3-5.5c-1.3,2.2-3.1,4-5.3,5.5c-2.3,1.5-5.1,2.2-8.4,2.2c-2.8,0-5.4-0.7-7.7-2
			c-2.3-1.3-4.1-3.2-5.5-5.8c-0.9-1.6-1.4-3.4-1.7-5.5h40.6c0.1-0.4,0.1-0.9,0.2-1.8c0.1-0.8,0.1-1.8,0.1-2.9c0-5-1-9.6-3.1-13.8
			C1034.4,91.6,1031.4,88.3,1027.4,85.8z M999.1,104.3c0.3-1,0.7-1.9,1.1-2.8c1.3-2.5,3-4.5,5.3-5.9c2.2-1.4,4.7-2.1,7.4-2.1
			c2.1,0,3.9,0.3,5.5,1c1.6,0.7,3,1.5,4.1,2.6c1.1,1.1,2,2.2,2.7,3.5c0.6,1.3,1,2.5,1.1,3.7L999.1,104.3L999.1,104.3z"/>
		<path class="st9" d="M1075.3,105.7l-8-1.9c-2-0.5-3.7-1.2-5.1-2.2c-1.4-1-2.1-2.2-2.1-3.5c0-1.3,0.7-2.4,2.1-3.3
			c1.4-0.9,3.3-1.4,5.7-1.4c2.1,0,4,0.4,5.8,1.3c1.8,0.9,3.3,2.3,4.4,4.5l11.9-5.2c-1.3-2.7-3-4.9-5.1-6.7c-2.1-1.7-4.6-3-7.5-3.9
			c-2.9-0.9-6.1-1.3-9.8-1.3c-3.9,0-7.4,0.7-10.7,2c-3.2,1.3-5.8,3.2-7.7,5.6c-1.9,2.4-2.8,5.3-2.8,8.5c0,2.9,0.7,5.5,2.2,7.7
			c1.4,2.2,3.3,4.1,5.7,5.5c2.3,1.5,4.8,2.5,7.4,3l6.4,1.4c1.5,0.3,2.9,0.7,4.3,1.1c1.4,0.5,2.6,1.1,3.6,1.9c1,0.8,1.4,1.9,1.4,3.4
			c0,2-0.9,3.4-2.8,4.1c-1.8,0.7-3.9,1.1-6.2,1.1c-2.8,0-5.2-0.7-7.2-2c-2.1-1.3-3.7-3.3-4.9-5.8l-12.4,5.4c1,2.6,2.5,5,4.6,7.2
			c2.1,2.2,4.7,4,8,5.3c3.3,1.3,7.3,2,11.9,2c4.2,0,8.1-0.7,11.6-2.2c3.5-1.5,6.2-3.5,8.3-6.2c2.1-2.7,3.1-5.8,3.1-9.3
			c0-4-1.4-7.4-4.1-10.2C1084.8,109.1,1080.7,107,1075.3,105.7L1075.3,105.7z"/>
		<path class="st9" d="M1129,125.4c-1,0.3-2.1,0.5-3.2,0.5c-2.4,0-4.1-0.6-5.2-1.9c-1.1-1.2-1.6-3.2-1.6-5.8V95.7h13.3V83.8h-13.3
			V68.4h-13.9v15.3h-9.5v11.9h9.5v25.1c0,5.7,1.6,10.1,4.8,13.4c3.2,3.2,7.6,4.9,13.2,4.9c1.7,0,3.3-0.2,4.9-0.5
			c1.6-0.3,3.2-0.8,4.7-1.3v-13.6C1131.3,124.5,1130,125.1,1129,125.4z"/>
	</g>
</g>
<g>
	<path d="M813.5,185.8h3.6l10.1,26.6h-3.5l-2.7-7.3h-11.5l-2.7,7.3h-3.5L813.5,185.8z M820,202.2l-3.5-9.6l-1.1-2.9h-0.1l-1,2.9
		l-3.5,9.6H820z"/>
	<path d="M831.6,211.6c-1.4-1-2.3-2.2-2.9-3.7l2.8-1.3c0.5,1.1,1.2,2,2.1,2.6c0.9,0.6,2,0.9,3.1,0.9c1.2,0,2.2-0.2,3-0.7
		c0.8-0.5,1.3-1.2,1.3-2.1c0-0.8-0.3-1.4-1-1.9c-0.7-0.5-1.7-0.9-3.2-1.2l-2.3-0.6c-1.5-0.4-2.8-1-3.7-1.9s-1.5-2-1.5-3.5
		c0-1.1,0.3-2.1,1-2.9c0.7-0.8,1.5-1.5,2.6-1.9c1.1-0.4,2.3-0.7,3.5-0.7c1.7,0,3.1,0.4,4.4,1.1s2.2,1.7,2.8,3l-2.8,1.3
		c-0.8-1.7-2.3-2.5-4.5-2.5c-1,0-2,0.2-2.7,0.7c-0.8,0.5-1.2,1.1-1.2,1.8c0,0.7,0.3,1.3,0.8,1.7c0.5,0.4,1.4,0.8,2.5,1.1l2.8,0.7
		c1.9,0.5,3.3,1.2,4.2,2.1c0.9,0.9,1.4,2.1,1.4,3.4c0,1.2-0.3,2.2-1,3.1c-0.7,0.9-1.6,1.6-2.7,2c-1.1,0.5-2.4,0.7-3.8,0.7
		C834.7,213,833,212.6,831.6,211.6z"/>
	<path d="M852.6,212.4c-0.7-0.2-1.2-0.6-1.7-1c-0.5-0.5-0.9-1-1.1-1.6c-0.2-0.6-0.4-1.4-0.4-2.3v-11.1h-3.3v-2.9h3.3v-5.4h3.2v5.4
		h4.6v2.9h-4.6v10.3c0,1,0.2,1.8,0.6,2.3c0.5,0.5,1.2,0.8,2,0.8c0.7,0,1.4-0.2,2.1-0.6v3.1c-0.4,0.2-0.8,0.3-1.1,0.4
		c-0.4,0.1-0.9,0.1-1.5,0.1C854,212.7,853.3,212.6,852.6,212.4z"/>
	<path d="M861.1,193.5h3v3h0.1c0.4-1,1.1-1.9,2.2-2.6c1.1-0.7,2.2-1,3.3-1c0.9,0,1.6,0.1,2.2,0.4v3.4c-0.8-0.4-1.7-0.6-2.7-0.6
		c-0.9,0-1.8,0.3-2.5,0.8s-1.4,1.2-1.8,2.1c-0.5,0.9-0.7,1.8-0.7,2.8v10.6h-3.2V193.5z"/>
	<path d="M876.6,212.2c-1.1-0.5-1.9-1.3-2.5-2.3c-0.6-1-0.9-2-0.9-3.3c0-2,0.8-3.6,2.3-4.7c1.5-1.1,3.4-1.7,5.7-1.7
		c1.1,0,2.2,0.1,3.2,0.4c1,0.2,1.7,0.5,2.2,0.9v-1.2c0-1.4-0.5-2.5-1.5-3.4c-1-0.9-2.2-1.3-3.8-1.3c-1.1,0-2,0.2-2.9,0.7
		c-0.9,0.5-1.6,1.1-2.1,1.9l-2.4-1.8c0.7-1.1,1.8-2,3.1-2.7c1.3-0.6,2.7-1,4.3-1c2.6,0,4.6,0.7,6.1,2s2.2,3.2,2.2,5.5v12h-3v-2.7
		h-0.1c-0.5,0.9-1.4,1.7-2.5,2.3c-1.1,0.6-2.3,1-3.7,1C879,213,877.7,212.8,876.6,212.2z M883.6,209.4c0.9-0.5,1.6-1.3,2.2-2.2
		s0.8-1.9,0.8-3c-0.6-0.4-1.3-0.7-2.2-1c-0.9-0.2-1.8-0.4-2.8-0.4c-1.7,0-3,0.4-3.9,1.1s-1.3,1.6-1.3,2.8c0,1,0.4,1.9,1.2,2.5
		c0.8,0.6,1.8,1,3,1C881.7,210.3,882.7,210,883.6,209.4z"/>
	<path d="M894,185.8h3.2v16.7l8.9-9.1h4v0.1l-7.4,7.5l7.6,11.2v0.1h-3.8l-6.1-9.1l-3.3,3.3v5.8H894V185.8z"/>
	<path d="M912.8,185.8h3.2v7.8l-0.1,2.6h0.1c0.5-1,1.3-1.8,2.5-2.4s2.4-1,3.7-1c2.3,0,4.1,0.7,5.3,2c1.2,1.4,1.8,3.1,1.8,5.4v12.2
		h-3.2v-11.7c0-1.7-0.4-3-1.3-3.8c-0.9-0.8-2-1.2-3.4-1.2c-1,0-1.9,0.3-2.7,0.9c-0.8,0.6-1.5,1.4-2,2.3c-0.5,0.9-0.7,1.9-0.7,2.9
		v10.6h-3.2V185.8z"/>
	<path d="M935.9,212.2c-1.1-0.5-1.9-1.3-2.5-2.3c-0.6-1-0.9-2-0.9-3.3c0-2,0.8-3.6,2.3-4.7c1.5-1.1,3.4-1.7,5.7-1.7
		c1.1,0,2.2,0.1,3.2,0.4c1,0.2,1.7,0.5,2.2,0.9v-1.2c0-1.4-0.5-2.5-1.5-3.4c-1-0.9-2.2-1.3-3.8-1.3c-1.1,0-2,0.2-2.9,0.7
		c-0.9,0.5-1.6,1.1-2.1,1.9l-2.4-1.8c0.7-1.1,1.8-2,3.1-2.7c1.3-0.6,2.7-1,4.3-1c2.6,0,4.6,0.7,6.1,2s2.2,3.2,2.2,5.5v12h-3v-2.7
		h-0.1c-0.5,0.9-1.4,1.7-2.5,2.3c-1.1,0.6-2.3,1-3.7,1C938.3,213,937,212.8,935.9,212.2z M942.9,209.4c0.9-0.5,1.6-1.3,2.2-2.2
		s0.8-1.9,0.8-3c-0.6-0.4-1.3-0.7-2.2-1c-0.9-0.2-1.8-0.4-2.8-0.4c-1.7,0-3,0.4-3.9,1.1s-1.3,1.6-1.3,2.8c0,1,0.4,1.9,1.2,2.5
		c0.8,0.6,1.8,1,3,1C941,210.3,942,210,942.9,209.4z"/>
	<path d="M953.3,193.5h3v2.8h0.1c0.5-0.9,1.4-1.7,2.5-2.4c1.1-0.7,2.4-1,3.6-1c2.3,0,4,0.7,5.2,2s1.8,3.1,1.8,5.4v12.2h-3.2v-11.7
		c0-1.8-0.4-3-1.3-3.8s-2-1.2-3.5-1.2c-1,0-1.9,0.3-2.7,0.9s-1.4,1.3-1.9,2.2c-0.4,0.9-0.7,1.9-0.7,2.9v10.7h-3.2V193.5z"/>
	<path d="M982.1,209.3c0.8-0.8,2.3-2.3,4.6-4.6c2.3-2.3,3.9-4,4.8-4.9c1.3-1.4,2.1-2.4,2.6-3.2s0.7-1.7,0.7-2.8
		c0-0.7-0.2-1.4-0.6-2.1c-0.4-0.7-0.9-1.2-1.7-1.6c-0.7-0.4-1.6-0.6-2.6-0.6c-1.3,0-2.4,0.4-3.2,1.2c-0.8,0.8-1.3,1.6-1.6,2.5
		l-2.9-1.2c0.2-0.8,0.7-1.6,1.3-2.5c0.6-0.9,1.5-1.6,2.6-2.2c1.1-0.6,2.4-0.9,3.9-0.9c1.6,0,2.9,0.3,4.1,1c1.2,0.7,2.1,1.6,2.8,2.7
		s1,2.3,1,3.6c0,2.6-1.4,5.3-4.1,8.1l-7.6,7.7h12v3h-16.1V209.3z"/>
	<path d="M1006.6,211.3c-1.5-1.2-2.7-2.8-3.6-4.8c-0.8-2-1.2-4.3-1.2-6.7s0.4-4.7,1.2-6.7c0.8-2,2-3.6,3.6-4.8
		c1.5-1.2,3.3-1.8,5.4-1.8c2,0,3.8,0.6,5.4,1.8c1.5,1.2,2.7,2.8,3.6,4.8c0.8,2,1.2,4.3,1.2,6.7s-0.4,4.7-1.2,6.7
		c-0.8,2-2,3.6-3.6,4.8c-1.5,1.2-3.3,1.8-5.3,1.8C1010,213,1008.2,212.5,1006.6,211.3z M1015.6,208.7c1-0.9,1.8-2.1,2.4-3.7
		s0.9-3.3,0.9-5.2s-0.3-3.7-0.9-5.2s-1.4-2.8-2.4-3.7c-1-0.9-2.3-1.4-3.7-1.4c-1.4,0-2.6,0.5-3.7,1.4c-1,0.9-1.8,2.1-2.4,3.7
		s-0.9,3.3-0.9,5.2s0.3,3.7,0.9,5.2s1.4,2.8,2.4,3.7c1,0.9,2.3,1.4,3.7,1.4C1013.4,210,1014.6,209.6,1015.6,208.7z"/>
	<path d="M1025.3,209.3c0.8-0.8,2.3-2.3,4.6-4.6c2.3-2.3,3.9-4,4.8-4.9c1.3-1.4,2.1-2.4,2.6-3.2s0.7-1.7,0.7-2.8
		c0-0.7-0.2-1.4-0.6-2.1c-0.4-0.7-0.9-1.2-1.7-1.6c-0.7-0.4-1.6-0.6-2.6-0.6c-1.3,0-2.4,0.4-3.2,1.2c-0.8,0.8-1.3,1.6-1.6,2.5
		l-2.9-1.2c0.2-0.8,0.7-1.6,1.3-2.5c0.6-0.9,1.5-1.6,2.6-2.2c1.1-0.6,2.4-0.9,3.9-0.9c1.6,0,2.9,0.3,4.1,1c1.2,0.7,2.1,1.6,2.8,2.7
		s1,2.3,1,3.6c0,2.6-1.4,5.3-4.1,8.1l-7.6,7.7h12v3h-16.1V209.3z"/>
	<path d="M1057,207h-12.2v-2.4l11.9-17.6h3.4v17h3.3v3h-3.3v5.5h-3.1V207z M1057,204v-12.4h-0.1l-8.4,12.4H1057z"/>
</g>
</svg>
