<?xml version="1.0" encoding="utf-8"?>
<!-- Generator: Adobe Illustrator 21.0.1, SVG Export Plug-In . SVG Version: 6.00 Build 0)  -->
<svg version="1.1" id="MISCELLANEOUS" xmlns="http://www.w3.org/2000/svg" xmlns:xlink="http://www.w3.org/1999/xlink" x="0px"
	 y="0px" viewBox="0 0 100 100" style="enable-background:new 0 0 100 100;" xml:space="preserve">
<style type="text/css">
	.st0{fill:#FFFFFF;}
	.st1{fill:#8F00FF;}
</style>
<path class="st0" d="M50,86.1C40,78,31.5,68.9,26.1,57.2c-2.5-5.5-3.9-11.2-3.8-17.3c0.2-13,10.3-24.5,23.1-26.5
	c15.1-2.3,28.8,7.2,31.7,22.2c1.2,6.2,0.2,12.2-1.9,18.1c-2.7,7.5-7.1,14.1-12.3,20.1c-3.5,4.1-7.4,7.8-11.6,11.2
	C50.9,85.4,50.5,85.7,50,86.1L50,86.1z M50,25.4c-8.5,0-15.4,6.9-15.4,15.4c0,8.4,6.9,15.3,15.3,15.3c8.5,0,15.4-6.9,15.4-15.4
	C65.4,32.3,58.5,25.4,50,25.4z"/>
<g>
	<path class="st1" d="M16.2,42.2c0-17.5,11.4-31.5,27.3-34.6C61.8,4,79.7,16,83.2,34.3c1.5,7.8,0.3,15.4-2.5,22.7
		c-3.3,8.5-8.4,15.8-14.5,22.5C62,84,57.4,88.2,52.5,92c-1.9,1.4-3,1.4-4.9,0c-10-7.7-18.6-16.7-24.8-27.8
		C18.7,56.9,16.3,49.3,16.2,42.2L16.2,42.2z M50,86.1c0.5-0.4,0.9-0.7,1.3-1.1c4.2-3.4,8.1-7.1,11.6-11.2c5.2-6,9.6-12.5,12.4-20.1
		c2.1-5.9,3.1-11.9,1.9-18.1c-2.9-15-16.6-24.5-31.7-22.2C32.6,15.4,22.6,27,22.3,39.9c-0.1,6.1,1.3,11.8,3.8,17.3
		C31.5,68.9,40,78,50,86.1L50,86.1z"/>
	<path class="st1" d="M50,25.4c8.5,0,15.4,6.9,15.4,15.4c0,8.5-6.9,15.4-15.4,15.4c-8.4,0-15.3-6.9-15.3-15.3
		C34.6,32.3,41.5,25.4,50,25.4z M50,50c5.1,0,9.2-4.1,9.3-9.2c0-5.1-4.1-9.2-9.2-9.3c-5.1,0-9.2,4.1-9.3,9.2
		C40.8,45.8,44.9,50,50,50z"/>
</g>
</svg>
