<?xml version="1.0" encoding="utf-8"?>
<!-- Generator: Adobe Illustrator 21.0.1, SVG Export Plug-In . SVG Version: 6.00 Build 0)  -->
<svg version="1.1" id="MISCELLANEOUS" xmlns="http://www.w3.org/2000/svg" xmlns:xlink="http://www.w3.org/1999/xlink" x="0px"
	 y="0px" viewBox="0 0 100 100" style="enable-background:new 0 0 100 100;" xml:space="preserve">
<style type="text/css">
	.st0{fill:#FFFFFF;}
	.st1{fill:#8F00FF;}
</style>
<g>
	<path class="st0" d="M15.9,40.8h68.1v0.9c0,10.9,0,21.9,0,32.8c0,5.6-4,9.6-9.6,9.6c-16.3,0-32.6,0-49,0c-5.6,0-9.6-4.1-9.6-9.6
		c0-10.9,0-21.9,0-32.8C15.9,41.4,15.9,41.1,15.9,40.8L15.9,40.8z M31.4,68.6c-1,0-2.1,0-3.1,0c-1.8,0-3.2,1.4-3.1,3.2
		c0,1.7,1.4,3.1,3.1,3.1c2.1,0,4.2,0,6.3,0c1.8,0,3.1-1.4,3.1-3.1c0-1.7-1.4-3.1-3.1-3.2C33.5,68.6,32.5,68.6,31.4,68.6L31.4,68.6z
		 M68.5,74.9c1.1,0,2.1,0,3.2,0c1.8,0,3.2-1.4,3.2-3.1c0-1.8-1.4-3.2-3.2-3.2c-2,0-4,0-6.1,0c-1.8,0-3.2,1.4-3.2,3.2
		c0,1.8,1.4,3.1,3.3,3.2C66.6,74.9,67.6,74.9,68.5,74.9L68.5,74.9z M68.7,50c-1.1,0-2.1,0-3.2,0c-1.8,0-3.2,1.4-3.2,3.2
		c0,1.7,1.3,3.1,3.1,3.1c2.1,0,4.2,0,6.3,0c1.7,0,3.1-1.4,3.1-3.1c0-1.7-1.4-3.1-3.1-3.2C70.7,50,69.7,50,68.7,50L68.7,50z
		 M31.3,56.3c1,0,2.1,0,3.2,0c1.8,0,3.2-1.4,3.2-3.2c0-1.7-1.4-3.1-3.2-3.1c-2,0-4.1,0-6.1,0c-1.8,0-3.2,1.4-3.2,3.1
		c0,1.7,1.4,3.1,3.1,3.2C29.3,56.3,30.3,56.3,31.3,56.3L31.3,56.3z M50,56.3c1,0,2,0,3,0c1.9,0,3.2-1.4,3.2-3.2S54.9,50,53,50
		c-2,0-4,0-6.1,0c-1.8,0-3.2,1.4-3.2,3.1c0,1.8,1.4,3.2,3.2,3.2C48,56.3,49,56.3,50,56.3z M50,68.6c-1.1,0-2.2,0-3.2,0
		c-1.7,0-3.1,1.4-3.1,3.1c0,1.7,1.3,3.1,3,3.1c2.2,0.1,4.3,0.1,6.5,0c1.7,0,3.1-1.5,3-3.2c0-1.7-1.4-3.1-3.1-3.1
		C52.1,68.6,51.1,68.6,50,68.6L50,68.6z"/>
	<path class="st0" d="M71.8,22.2c8.6-1,13.2,4.3,12.2,12.2H16.1c-1.1-7.1,3-13.2,12.1-12.2c0,0.2,0,0.5,0,0.7c0,1.8,0,3.5,0,5.3
		c0,1.8,1.3,3.2,3.1,3.2c1.8,0,3.2-1.3,3.2-3.2c0-2,0-4,0-6.1h30.9c0,1.2,0,2.5,0,3.7c0,0.8,0,1.6,0,2.4c0.1,1.8,1.4,3.1,3.2,3.1
		c1.7,0,3.1-1.4,3.1-3.1C71.8,26.3,71.7,24.3,71.8,22.2L71.8,22.2z"/>
</g>
<g>
	<path class="st1" d="M30.8,9.6H32c1.9,0.7,2.7,2.1,2.5,4.1c0,0.7,0,1.4,0,2.1h30.9c0-0.7,0.1-1.4,0-2.1c-0.2-2,0.6-3.4,2.5-4.1h1.3
		c1.9,0.7,2.7,2,2.5,4c-0.1,0.7,0,1.4,0,2.2c1,0,1.8,0,2.7,0C82,15.9,88,20.5,89.9,27.4c0.2,0.8,0.4,1.6,0.5,2.4v46.5
		c-0.1,0.1-0.1,0.2-0.1,0.4c-1.2,8.1-7.6,13.7-15.8,13.7c-16.3,0-32.6,0-49,0c-1.2,0-2.5-0.1-3.7-0.4c-7.2-1.6-12.2-7.9-12.2-15.3
		c0-14.4,0-28.8,0-43.2c0-0.8,0.1-1.5,0.2-2.3c0.8-6.9,7.1-12.8,14-13.3c1.5-0.1,2.9,0,4.5,0c0-0.9,0-1.6,0-2.3
		C28.1,11.7,28.9,10.3,30.8,9.6L30.8,9.6z M15.9,40.8c0,0.3,0,0.6,0,0.9c0,10.9,0,21.9,0,32.8c0,5.6,4,9.6,9.6,9.6
		c16.3,0,32.6,0,49,0c5.6,0,9.6-4.1,9.6-9.6c0-10.9,0-21.9,0-32.8v-0.9L15.9,40.8L15.9,40.8z M71.8,22.2c0,2,0,4.1,0,6.1
		c0,1.8-1.4,3.1-3.1,3.1c-1.8,0-3.2-1.3-3.2-3.1c0-0.8,0-1.6,0-2.4c0-1.2,0-2.5,0-3.7H34.5c0,2,0,4.1,0,6.1c0,1.9-1.4,3.2-3.2,3.2
		c-1.8,0-3.1-1.4-3.1-3.2c0-1.8,0-3.5,0-5.3c0-0.3,0-0.5,0-0.7c-9.1-1-13.2,5.1-12.1,12.2H84C85,26.5,80.3,21.2,71.8,22.2L71.8,22.2
		z"/>
	<path class="st1" d="M31.4,68.6c1,0,2.1,0,3.1,0c1.8,0,3.2,1.4,3.1,3.2c0,1.7-1.4,3.1-3.1,3.1c-2.1,0-4.2,0-6.3,0
		c-1.7,0-3.1-1.4-3.1-3.1c0-1.7,1.4-3.1,3.1-3.2C29.3,68.6,30.4,68.6,31.4,68.6L31.4,68.6z"/>
	<path class="st1" d="M68.5,74.9c-1,0-1.9,0-2.9,0c-1.8,0-3.2-1.4-3.3-3.2c0-1.8,1.4-3.1,3.2-3.2c2,0,4,0,6.1,0
		c1.8,0,3.2,1.4,3.2,3.2c0,1.7-1.4,3.1-3.2,3.1C70.6,74.9,69.6,74.9,68.5,74.9L68.5,74.9z"/>
	<path class="st1" d="M68.7,50c1,0,2.1,0,3.1,0c1.8,0,3.2,1.5,3.1,3.2c0,1.7-1.4,3.1-3.1,3.1c-2.1,0-4.2,0-6.3,0
		c-1.7,0-3.1-1.4-3.1-3.1c0-1.7,1.4-3.1,3.1-3.2C66.6,50,67.6,50,68.7,50L68.7,50z"/>
	<path class="st1" d="M31.3,56.3c-1,0-2,0-3.1,0c-1.8,0-3.2-1.5-3.1-3.2c0-1.7,1.4-3.1,3.2-3.1c2,0,4.1,0,6.1,0
		c1.8,0,3.2,1.4,3.2,3.1c0,1.7-1.4,3.1-3.2,3.2C33.4,56.3,32.4,56.3,31.3,56.3L31.3,56.3z"/>
	<path class="st1" d="M50,56.3c-1,0-2,0-3.1,0c-1.8,0-3.2-1.5-3.2-3.2c0-1.7,1.4-3.1,3.2-3.1c2,0,4,0,6.1,0c1.8,0,3.2,1.4,3.2,3.2
		c0,1.8-1.4,3.1-3.2,3.2C52,56.3,51,56.3,50,56.3z"/>
	<path class="st1" d="M50,68.6c1,0,2,0,3.1,0c1.8,0,3.1,1.4,3.1,3.1c0,1.7-1.3,3.1-3,3.2c-2.2,0.1-4.3,0.1-6.5,0c-1.7,0-3-1.5-3-3.1
		c0-1.7,1.4-3.1,3.1-3.1C47.9,68.6,49,68.6,50,68.6L50,68.6z"/>
</g>
</svg>
