<?xml version="1.0" encoding="UTF-8"?>
<svg id="MISCELLANEOUS" xmlns="http://www.w3.org/2000/svg" viewBox="0 0 100 100">
  <defs>
    <style>
      .cls-1 {
        fill: #f9ab00;
      }
    </style>
  </defs>
  <path class="cls-1" d="M53.23,84.27c0-.78,0-1.55,0-2.32,0-2.35-1.22-3.79-3.2-3.8-2,0-3.24,1.43-3.24,3.76,0,.77,0,1.55,0,2.33-15.8-1.05-30.12-14.49-31.37-31.35,.91,0,1.82,0,2.73,0,1.97-.02,3.38-1.36,3.38-3.22,0-1.86-1.41-3.2-3.38-3.22-.91,0-1.81,0-2.73,0,1.12-15.5,13.94-29.86,31.37-31.4,0,1.01-.02,2.02,0,3.02,.05,1.78,1.47,3.13,3.24,3.12,1.76,0,3.15-1.37,3.19-3.16,.03-.96,0-1.93,0-2.89,14.25,.68,29.81,13.01,31.4,31.32-.91,0-1.81,0-2.72,0-2.03,.01-3.44,1.36-3.42,3.26,.02,1.85,1.43,3.17,3.42,3.18,.88,0,1.76,0,2.65,0-.87,15.13-13.84,29.99-31.33,31.39Zm-6.45-44.14c0,3.01,.03,6.01-.01,9.02-.02,1.27,.4,2.26,1.3,3.15,4,3.97,7.98,7.96,11.97,11.95,.19,.19,.38,.38,.58,.55,1.95,1.59,4.79,.53,5.22-1.94,.22-1.22-.25-2.19-1.1-3.04-3.67-3.66-7.32-7.33-11-10.98-.37-.37-.53-.73-.53-1.26,.02-5.56,.01-11.11,0-16.67,0-2.05-1.32-3.49-3.2-3.5-1.9-.01-3.24,1.44-3.25,3.53,0,3.06,0,6.12,0,9.18Z"/>
  <g>
    <path d="M47.43,8.41c1.72,0,3.44,0,5.16,0,.21,.04,.41,.1,.62,.13,2.59,.45,5.26,.61,7.74,1.38,16.29,5.01,26.22,15.91,29.67,32.63,.31,1.49,.43,3.02,.64,4.53v5.16c-.1,.77-.21,1.54-.3,2.3-.95,8.05-3.93,15.28-9.21,21.41-9.98,11.6-22.68,16.52-37.86,14.45-10.53-1.43-19.21-6.48-25.87-14.74-8.28-10.28-10.95-22.02-8.29-34.93C13.03,24.73,26.7,11.68,42.82,9.05c1.53-.25,3.07-.43,4.61-.64Zm5.8,75.86c17.49-1.4,30.46-16.26,31.33-31.39-.88,0-1.77,0-2.65,0-1.99-.01-3.4-1.33-3.42-3.18-.02-1.9,1.39-3.25,3.42-3.26,.9,0,1.81,0,2.72,0-1.59-18.31-17.15-30.63-31.4-31.32,0,.97,.02,1.93,0,2.89-.05,1.8-1.43,3.15-3.19,3.16-1.77,0-3.18-1.33-3.24-3.12-.03-1,0-2.01,0-3.02-17.44,1.54-30.26,15.9-31.37,31.4,.91,0,1.82,0,2.73,0,1.97,.02,3.38,1.36,3.38,3.22,0,1.86-1.41,3.21-3.38,3.22-.91,0-1.81,0-2.73,0,1.25,16.86,15.57,30.3,31.37,31.35,0-.78,0-1.55,0-2.33,0-2.33,1.24-3.77,3.24-3.76,1.99,0,3.2,1.45,3.2,3.8,0,.77,0,1.54,0,2.32Z"/>
    <path d="M46.78,40.13c0-3.06,0-6.12,0-9.18,0-2.09,1.35-3.54,3.25-3.53,1.87,.01,3.19,1.45,3.2,3.5,0,5.56,0,11.11,0,16.67,0,.53,.15,.89,.53,1.26,3.68,3.65,7.33,7.32,11,10.98,.85,.85,1.32,1.82,1.1,3.04-.44,2.47-3.28,3.52-5.22,1.94-.21-.17-.39-.36-.58-.55-3.99-3.98-7.96-7.98-11.97-11.95-.9-.89-1.32-1.88-1.3-3.15,.04-3.01,.01-6.01,.01-9.02Z"/>
  </g>
</svg>