<?xml version="1.0" encoding="utf-8"?>
<!-- Generator: Adobe Illustrator 21.0.1, SVG Export Plug-In . SVG Version: 6.00 Build 0)  -->
<svg version="1.1" id="MISCELLANEOUS" xmlns="http://www.w3.org/2000/svg" xmlns:xlink="http://www.w3.org/1999/xlink" x="0px"
	 y="0px" viewBox="0 0 100 100" style="enable-background:new 0 0 100 100;" xml:space="preserve">
<style type="text/css">
	.st0{fill:#FFFFFF;}
	.st1{fill:#8F00FF;}
</style>
<path class="st0" d="M53.2,84.3c0-0.8,0-1.6,0-2.3c0-2.3-1.2-3.8-3.2-3.8c-2,0-3.2,1.4-3.2,3.8c0,0.8,0,1.6,0,2.3
	C31,83.2,16.7,69.7,15.4,52.9c0.9,0,1.8,0,2.7,0c2,0,3.4-1.4,3.4-3.2s-1.4-3.2-3.4-3.2c-0.9,0-1.8,0-2.7,0
	C16.5,30.9,29.4,16.6,46.8,15c0,1,0,2,0,3c0,1.8,1.5,3.1,3.2,3.1c1.8,0,3.2-1.4,3.2-3.2c0-1,0-1.9,0-2.9c14.3,0.7,29.8,13,31.4,31.3
	c-0.9,0-1.8,0-2.7,0c-2,0-3.4,1.4-3.4,3.3c0,1.8,1.4,3.2,3.4,3.2c0.9,0,1.8,0,2.7,0C83.7,68,70.7,82.9,53.2,84.3L53.2,84.3z
	 M46.8,40.1c0,3,0,6,0,9c0,1.3,0.4,2.3,1.3,3.2c4,4,8,8,12,12c0.2,0.2,0.4,0.4,0.6,0.6c2,1.6,4.8,0.5,5.2-1.9c0.2-1.2-0.3-2.2-1.1-3
	c-3.7-3.7-7.3-7.3-11-11c-0.4-0.4-0.5-0.7-0.5-1.3c0-5.6,0-11.1,0-16.7c0-2-1.3-3.5-3.2-3.5c-1.9,0-3.2,1.4-3.3,3.5
	C46.8,34,46.8,37.1,46.8,40.1L46.8,40.1z"/>
<g>
	<path class="st1" d="M47.4,8.4c1.7,0,3.4,0,5.2,0c0.2,0,0.4,0.1,0.6,0.1c2.6,0.4,5.3,0.6,7.7,1.4c16.3,5,26.2,15.9,29.7,32.6
		c0.3,1.5,0.4,3,0.6,4.5v5.2C91.2,53,91,53.8,91,54.5c-0.9,8-3.9,15.3-9.2,21.4c-10,11.6-22.7,16.5-37.9,14.4
		C33.4,89,24.7,83.9,18,75.7c-8.3-10.3-10.9-22-8.3-34.9c3.3-16,17-29,33.1-31.7C44.3,8.8,45.9,8.6,47.4,8.4z M53.2,84.3
		C70.7,82.9,83.7,68,84.6,52.9c-0.9,0-1.8,0-2.7,0c-2,0-3.4-1.3-3.4-3.2c0-1.9,1.4-3.3,3.4-3.3c0.9,0,1.8,0,2.7,0
		C83,28.1,67.5,15.8,53.2,15.1c0,1,0,1.9,0,2.9c0,1.8-1.4,3.1-3.2,3.2c-1.8,0-3.2-1.3-3.2-3.1c0-1,0-2,0-3
		c-17.4,1.5-30.3,15.9-31.4,31.4c0.9,0,1.8,0,2.7,0c2,0,3.4,1.4,3.4,3.2s-1.4,3.2-3.4,3.2c-0.9,0-1.8,0-2.7,0
		C16.7,69.7,31,83.2,46.8,84.2c0-0.8,0-1.6,0-2.3c0-2.3,1.2-3.8,3.2-3.8c2,0,3.2,1.4,3.2,3.8C53.2,82.7,53.2,83.5,53.2,84.3
		L53.2,84.3z"/>
	<path class="st1" d="M46.8,40.1c0-3.1,0-6.1,0-9.2c0-2.1,1.3-3.5,3.3-3.5c1.9,0,3.2,1.5,3.2,3.5c0,5.6,0,11.1,0,16.7
		c0,0.5,0.2,0.9,0.5,1.3c3.7,3.7,7.3,7.3,11,11c0.8,0.8,1.3,1.8,1.1,3c-0.4,2.5-3.3,3.5-5.2,1.9c-0.2-0.2-0.4-0.4-0.6-0.6
		c-4-4-8-8-12-12c-0.9-0.9-1.3-1.9-1.3-3.2C46.8,46.1,46.8,43.1,46.8,40.1L46.8,40.1z"/>
</g>
</svg>
