<?xml version="1.0" encoding="utf-8"?>
<!-- Generator: Adobe Illustrator 21.0.1, SVG Export Plug-In . SVG Version: 6.00 Build 0)  -->
<svg version="1.1" id="Слой_1" xmlns="http://www.w3.org/2000/svg" xmlns:xlink="http://www.w3.org/1999/xlink" x="0px" y="0px"
	 viewBox="0 0 24 24" style="enable-background:new 0 0 24 24;" xml:space="preserve">
<style type="text/css">
	.st0{clip-path:url(#SVGID_2_);}
	.st1{fill:#31A7E4;}
</style>
<g>
	<defs>
		<rect id="SVGID_1_" y="0" width="24" height="24"/>
	</defs>
	<clipPath id="SVGID_2_">
		<use xlink:href="#SVGID_1_"  style="overflow:visible;"/>
	</clipPath>
	<g class="st0">
		<path class="st1" d="M12,0c6.6,0,12,5.4,12,12c0,6.6-5.4,12-12,12C5.4,24,0,18.6,0,12C0,5.4,5.4,0,12,0z M17.3,7.2
			c-0.5,0-1.2,0.2-4.5,1.6c-1.2,0.5-3.5,1.5-7.1,3c-0.6,0.2-0.9,0.4-0.9,0.7c-0.1,0.4,0.6,0.5,1.3,0.8c0.6,0.2,1.5,0.4,1.9,0.4
			c0.4,0,0.8-0.2,1.3-0.5c3.3-2.2,5-3.3,5.1-3.3c0.1,0,0.2,0,0.3,0c0.1,0.1,0.1,0.2,0.1,0.2c-0.1,0.3-3.2,3-3.3,3.2l-0.1,0.1
			c-0.7,0.7-1.3,1.1-0.2,1.8c1,0.7,1.6,1.1,2.7,1.8c0.7,0.4,1.2,1,1.9,0.9c0.3,0,0.7-0.3,0.8-1.2C17,14.6,17.8,10,18,8.1
			c0-0.2,0-0.4,0-0.5c0-0.1-0.1-0.2-0.2-0.3C17.7,7.2,17.4,7.2,17.3,7.2z"/>
	</g>
</g>
</svg>
